<svg xmlns="http://www.w3.org/2000/svg" xmlns:xlink="http://www.w3.org/1999/xlink" width="353" zoomAndPan="magnify" viewBox="0 0 264.75 232.499993" height="310" preserveAspectRatio="xMidYMid meet" version="1.0"><defs><g/><clipPath id="5e2b19f212"><path d="M 0.160156 0 L 117.65625 0 L 117.65625 117.496094 L 0.160156 117.496094 Z M 0.160156 0 " clip-rule="nonzero"/></clipPath><clipPath id="11af042bfb"><path d="M 51 69 L 222.296875 69 L 222.296875 164.613281 L 51 164.613281 Z M 51 69 " clip-rule="nonzero"/></clipPath><clipPath id="1835aedcca"><path d="M 51 52 L 222.296875 52 L 222.296875 84 L 51 84 Z M 51 52 " clip-rule="nonzero"/></clipPath><clipPath id="c6753a31bc"><path d="M 44.929688 64 L 217 64 L 217 160 L 44.929688 160 Z M 44.929688 64 " clip-rule="nonzero"/></clipPath><clipPath id="e6ab9a4e66"><path d="M 45 47.113281 L 217 47.113281 L 217 65 L 45 65 Z M 45 47.113281 " clip-rule="nonzero"/></clipPath><clipPath id="0e3ade8146"><path d="M 44.929688 47.113281 L 217 47.113281 L 217 66 L 44.929688 66 Z M 44.929688 47.113281 " clip-rule="nonzero"/></clipPath><clipPath id="c2e90ec755"><path d="M 28.851562 135 L 68 135 L 68 174.226562 L 28.851562 174.226562 Z M 28.851562 135 " clip-rule="nonzero"/></clipPath><clipPath id="0c42258a91"><path d="M 60 123.335938 L 88.722656 123.335938 L 88.722656 152 L 60 152 Z M 60 123.335938 " clip-rule="nonzero"/></clipPath><clipPath id="f5da1d997f"><path d="M 58.75 132.875 L 208.429688 132.875 L 208.429688 231.660156 L 58.75 231.660156 Z M 58.75 132.875 " clip-rule="nonzero"/></clipPath><clipPath id="539365bc07"><path d="M 184 23 L 246 23 L 246 83 L 184 83 Z M 184 23 " clip-rule="nonzero"/></clipPath><clipPath id="9b11e8e80c"><path d="M 225.769531 2.105469 L 264.125 48.078125 L 211.253906 92.1875 L 172.902344 46.214844 Z M 225.769531 2.105469 " clip-rule="nonzero"/></clipPath><clipPath id="b8c3b2b501"><path d="M 225.769531 2.105469 L 264.125 48.078125 L 211.253906 92.1875 L 172.902344 46.214844 Z M 225.769531 2.105469 " clip-rule="nonzero"/></clipPath><clipPath id="9fcf95e0ee"><path d="M 225.769531 2.105469 L 264.125 48.078125 L 211.253906 92.1875 L 172.902344 46.214844 Z M 225.769531 2.105469 " clip-rule="nonzero"/></clipPath></defs><g clip-path="url(#5e2b19f212)"><path fill="#000000" d="M 116.160156 47.226562 L 108.210938 45.851562 C 105.445312 45.375 103.15625 43.539062 102.082031 40.949219 L 102.039062 40.839844 C 100.960938 38.238281 101.28125 35.320312 102.894531 33.027344 L 107.550781 26.433594 C 108.054688 25.714844 107.972656 24.742188 107.347656 24.121094 L 93.546875 10.320312 C 92.925781 9.699219 91.949219 9.617188 91.238281 10.121094 L 84.640625 14.769531 C 82.351562 16.386719 79.429688 16.707031 76.832031 15.628906 L 76.726562 15.585938 C 74.132812 14.511719 72.296875 12.222656 71.816406 9.457031 L 70.445312 1.507812 C 70.292969 0.644531 69.546875 0.015625 68.671875 0.015625 L 49.148438 0.015625 C 48.273438 0.015625 47.523438 0.644531 47.378906 1.507812 L 46.003906 9.457031 C 45.523438 12.222656 43.6875 14.511719 41.085938 15.589844 L 40.988281 15.628906 C 38.390625 16.707031 35.472656 16.386719 33.179688 14.769531 L 26.582031 10.117188 C 25.867188 9.613281 24.894531 9.695312 24.273438 10.316406 L 10.472656 24.121094 C 9.847656 24.738281 9.765625 25.710938 10.269531 26.429688 L 14.921875 33.023438 C 16.539062 35.316406 16.859375 38.238281 15.777344 40.839844 L 15.738281 40.941406 C 14.664062 43.535156 12.375 45.371094 9.609375 45.847656 L 1.65625 47.222656 C 0.792969 47.375 0.164062 48.121094 0.164062 48.996094 L 0.164062 68.515625 C 0.164062 69.394531 0.792969 70.140625 1.65625 70.289062 L 9.609375 71.664062 C 12.375 72.144531 14.664062 73.976562 15.738281 76.578125 L 15.777344 76.675781 C 16.859375 79.277344 16.539062 82.195312 14.917969 84.488281 L 10.269531 91.085938 C 9.765625 91.800781 9.847656 92.773438 10.46875 93.394531 L 24.269531 107.195312 C 24.890625 107.816406 25.863281 107.898438 26.582031 107.394531 L 33.175781 102.746094 C 35.46875 101.128906 38.386719 100.808594 40.988281 101.886719 L 41.089844 101.929688 C 43.6875 103.003906 45.519531 105.292969 46 108.058594 L 47.375 116.011719 C 47.523438 116.871094 48.269531 117.5 49.148438 117.5 L 68.667969 117.5 C 69.542969 117.5 70.289062 116.871094 70.441406 116.011719 L 71.816406 108.058594 C 72.292969 105.292969 74.128906 103.003906 76.726562 101.929688 L 76.828125 101.886719 C 79.425781 100.808594 82.347656 101.128906 84.640625 102.746094 L 91.234375 107.398438 C 91.949219 107.902344 92.925781 107.820312 93.546875 107.199219 L 107.347656 93.398438 C 107.96875 92.777344 108.050781 91.804688 107.546875 91.085938 L 102.898438 84.492188 C 101.277344 82.199219 100.960938 79.28125 102.039062 76.679688 L 102.082031 76.578125 C 103.152344 73.980469 105.445312 72.148438 108.210938 71.667969 L 116.160156 70.292969 C 117.023438 70.144531 117.652344 69.398438 117.652344 68.519531 L 117.652344 49 C 117.652344 48.121094 117.023438 47.375 116.160156 47.226562 Z M 58.910156 85.488281 C 44.171875 85.488281 32.179688 73.496094 32.179688 58.757812 C 32.179688 44.019531 44.171875 32.03125 58.910156 32.03125 C 73.648438 32.03125 85.636719 44.019531 85.636719 58.757812 C 85.636719 73.496094 73.648438 85.488281 58.910156 85.488281 Z M 58.910156 85.488281 " fill-opacity="1" fill-rule="nonzero"/></g><g clip-path="url(#11af042bfb)"><path fill="#2b2d31" d="M 57.382812 69.9375 L 216.46875 69.9375 C 219.589844 69.9375 222.144531 72.488281 222.144531 75.609375 L 222.144531 158.78125 C 222.144531 161.902344 219.589844 164.457031 216.46875 164.457031 L 57.382812 164.457031 C 54.265625 164.457031 51.710938 161.902344 51.710938 158.78125 L 51.710938 75.605469 C 51.714844 72.488281 54.269531 69.9375 57.382812 69.9375 " fill-opacity="1" fill-rule="nonzero"/></g><g clip-path="url(#1835aedcca)"><path fill="#2b2d31" d="M 58.488281 83.289062 L 215.363281 83.289062 C 219.09375 83.289062 222.144531 80.242188 222.144531 76.511719 L 222.144531 59.636719 C 222.144531 55.910156 219.09375 52.859375 215.363281 52.859375 L 58.488281 52.859375 C 54.761719 52.859375 51.710938 55.910156 51.710938 59.636719 L 51.710938 76.511719 C 51.714844 80.242188 54.765625 83.289062 58.488281 83.289062 " fill-opacity="1" fill-rule="nonzero"/></g><path fill="#faf9e1" d="M 51.367188 64.921875 L 210.539062 64.921875 C 213.636719 64.921875 216.171875 67.453125 216.171875 70.554688 L 216.171875 153.089844 C 216.171875 156.183594 213.640625 158.71875 210.539062 158.71875 L 51.367188 158.71875 C 48.273438 158.71875 45.738281 156.1875 45.738281 153.089844 L 45.738281 70.554688 C 45.738281 67.457031 48.269531 64.921875 51.367188 64.921875 " fill-opacity="1" fill-rule="evenodd"/><g clip-path="url(#c6753a31bc)"><path fill="#2b2d31" d="M 210.535156 65.671875 L 51.367188 65.671875 C 50.023438 65.671875 48.804688 66.222656 47.921875 67.105469 C 47.035156 67.992188 46.488281 69.210938 46.488281 70.554688 L 46.488281 153.089844 C 46.488281 154.433594 47.035156 155.652344 47.921875 156.535156 C 48.804688 157.421875 50.023438 157.972656 51.367188 157.972656 L 210.539062 157.972656 C 211.882812 157.972656 213.101562 157.421875 213.988281 156.535156 C 214.871094 155.652344 215.421875 154.433594 215.421875 153.089844 L 215.421875 70.554688 C 215.421875 69.210938 214.871094 67.992188 213.988281 67.105469 C 213.097656 66.222656 211.878906 65.671875 210.535156 65.671875 M 51.367188 64.179688 L 210.539062 64.179688 C 212.292969 64.179688 213.890625 64.898438 215.042969 66.050781 C 216.195312 67.203125 216.914062 68.800781 216.914062 70.554688 L 216.914062 153.089844 C 216.914062 154.84375 216.195312 156.441406 215.042969 157.59375 C 213.890625 158.746094 212.292969 159.464844 210.539062 159.464844 L 51.367188 159.464844 C 49.617188 159.464844 48.019531 158.746094 46.863281 157.59375 C 45.710938 156.441406 44.996094 154.84375 44.996094 153.089844 L 44.996094 70.554688 C 44.996094 68.800781 45.710938 67.203125 46.863281 66.050781 C 48.019531 64.898438 49.613281 64.179688 51.367188 64.179688 Z M 51.367188 64.179688 " fill-opacity="1" fill-rule="nonzero"/></g><g clip-path="url(#e6ab9a4e66)"><path fill="#c2d7d0" d="M 49.542969 64.921875 L 212.363281 64.921875 C 214.453125 64.921875 216.167969 63.210938 216.167969 61.121094 L 216.167969 51.652344 C 216.167969 49.5625 214.453125 47.851562 212.363281 47.851562 L 49.542969 47.851562 C 47.449219 47.851562 45.738281 49.5625 45.738281 51.652344 L 45.738281 61.121094 C 45.738281 63.214844 47.449219 64.921875 49.542969 64.921875 " fill-opacity="1" fill-rule="evenodd"/></g><g clip-path="url(#0e3ade8146)"><path fill="#2b2d31" d="M 212.363281 65.671875 L 49.542969 65.671875 C 48.292969 65.671875 47.152344 65.160156 46.328125 64.335938 C 45.503906 63.515625 44.996094 62.375 44.996094 61.125 L 44.996094 51.65625 C 44.996094 50.40625 45.503906 49.265625 46.328125 48.445312 C 47.152344 47.621094 48.292969 47.109375 49.542969 47.109375 L 212.363281 47.109375 C 213.613281 47.109375 214.753906 47.621094 215.578125 48.445312 C 216.398438 49.265625 216.910156 50.40625 216.910156 51.65625 L 216.910156 61.125 C 216.910156 62.375 216.398438 63.515625 215.578125 64.335938 C 214.753906 65.160156 213.613281 65.671875 212.363281 65.671875 M 49.542969 64.179688 L 212.363281 64.179688 C 213.203125 64.179688 213.964844 63.835938 214.519531 63.28125 C 215.074219 62.726562 215.417969 61.964844 215.417969 61.125 L 215.417969 51.65625 C 215.417969 50.816406 215.074219 50.054688 214.519531 49.5 C 213.964844 48.945312 213.203125 48.601562 212.363281 48.601562 L 49.542969 48.601562 C 48.699219 48.601562 47.9375 48.945312 47.382812 49.5 C 46.828125 50.054688 46.488281 50.816406 46.488281 51.65625 L 46.488281 61.125 C 46.488281 61.964844 46.828125 62.726562 47.382812 63.28125 C 47.933594 63.835938 48.699219 64.179688 49.542969 64.179688 Z M 49.542969 64.179688 " fill-opacity="1" fill-rule="nonzero"/></g><path fill="#fa8d70" d="M 74.421875 62.316406 C 69.589844 62.316406 65.675781 58.398438 65.675781 53.570312 C 65.675781 58.40625 61.761719 62.316406 56.929688 62.316406 C 61.765625 62.316406 65.675781 66.234375 65.675781 71.0625 C 65.671875 66.234375 69.589844 62.316406 74.421875 62.316406 " fill-opacity="1" fill-rule="evenodd"/><path fill="#2b2d31" d="M 68.761719 59.226562 C 70.210938 60.675781 72.210938 61.570312 74.417969 61.570312 L 74.417969 63.0625 C 72.210938 63.0625 70.210938 63.953125 68.761719 65.402344 C 67.316406 66.851562 66.421875 68.847656 66.421875 71.058594 L 64.929688 71.058594 C 64.929688 68.847656 64.035156 66.851562 62.585938 65.402344 C 61.140625 63.953125 59.140625 63.0625 56.929688 63.0625 L 56.929688 61.570312 C 59.140625 61.570312 61.140625 60.675781 62.585938 59.226562 C 64.035156 57.78125 64.929688 55.78125 64.929688 53.570312 L 66.421875 53.570312 C 66.421875 55.78125 67.316406 57.78125 68.761719 59.226562 M 70.726562 62.316406 C 69.589844 61.835938 68.570312 61.140625 67.710938 60.285156 C 66.851562 59.425781 66.15625 58.40625 65.675781 57.269531 C 65.199219 58.40625 64.503906 59.425781 63.644531 60.285156 C 62.785156 61.140625 61.765625 61.835938 60.628906 62.316406 C 61.765625 62.796875 62.785156 63.492188 63.644531 64.351562 C 64.503906 65.210938 65.199219 66.230469 65.675781 67.367188 C 66.15625 66.230469 66.851562 65.210938 67.710938 64.351562 C 68.570312 63.492188 69.589844 62.796875 70.726562 62.316406 Z M 70.726562 62.316406 " fill-opacity="1" fill-rule="nonzero"/><path fill="#000000" d="M 172.394531 52.195312 C 170.078125 52.195312 168.199219 54.074219 168.199219 56.386719 C 168.199219 58.703125 170.078125 60.582031 172.394531 60.582031 C 174.707031 60.582031 176.585938 58.703125 176.585938 56.386719 C 176.585938 54.074219 174.707031 52.195312 172.394531 52.195312 " fill-opacity="1" fill-rule="evenodd"/><path fill="#2b2d31" d="M 168.898438 52.894531 C 169.792969 52 171.027344 51.445312 172.394531 51.445312 C 173.757812 51.445312 174.992188 52 175.886719 52.894531 C 176.78125 53.789062 177.335938 55.023438 177.335938 56.386719 C 177.335938 57.753906 176.78125 58.988281 175.886719 59.882812 C 174.992188 60.777344 173.757812 61.332031 172.394531 61.332031 C 171.027344 61.332031 169.792969 60.777344 168.898438 59.882812 C 168.003906 58.988281 167.449219 57.753906 167.449219 56.386719 C 167.449219 55.023438 168.003906 53.789062 168.898438 52.894531 M 172.394531 52.941406 C 171.441406 52.941406 170.578125 53.328125 169.953125 53.949219 C 169.328125 54.574219 168.945312 55.4375 168.945312 56.386719 C 168.945312 57.339844 169.332031 58.203125 169.953125 58.828125 C 170.578125 59.453125 171.441406 59.835938 172.394531 59.835938 C 173.34375 59.835938 174.207031 59.449219 174.832031 58.828125 C 175.457031 58.203125 175.839844 57.339844 175.839844 56.386719 C 175.839844 55.4375 175.453125 54.574219 174.832031 53.949219 C 174.207031 53.324219 173.34375 52.941406 172.394531 52.941406 Z M 172.394531 52.941406 " fill-opacity="1" fill-rule="nonzero"/><path fill="#000000" d="M 185.40625 52.195312 C 183.09375 52.195312 181.214844 54.074219 181.214844 56.386719 C 181.214844 58.703125 183.09375 60.582031 185.40625 60.582031 C 187.722656 60.582031 189.601562 58.703125 189.601562 56.386719 C 189.601562 54.074219 187.722656 52.195312 185.40625 52.195312 " fill-opacity="1" fill-rule="evenodd"/><path fill="#2b2d31" d="M 181.914062 52.894531 C 182.808594 52 184.042969 51.445312 185.40625 51.445312 C 186.773438 51.445312 188.007812 52 188.902344 52.894531 C 189.796875 53.789062 190.351562 55.023438 190.351562 56.386719 C 190.351562 57.753906 189.796875 58.988281 188.902344 59.882812 C 188.007812 60.777344 186.773438 61.332031 185.40625 61.332031 C 184.042969 61.332031 182.808594 60.777344 181.914062 59.882812 C 181.019531 58.988281 180.464844 57.753906 180.464844 56.386719 C 180.464844 55.023438 181.019531 53.789062 181.914062 52.894531 M 185.40625 52.941406 C 184.457031 52.941406 183.59375 53.328125 182.96875 53.949219 C 182.34375 54.574219 181.960938 55.4375 181.960938 56.386719 C 181.960938 57.339844 182.347656 58.203125 182.96875 58.828125 C 183.59375 59.453125 184.457031 59.835938 185.40625 59.835938 C 186.359375 59.835938 187.222656 59.449219 187.847656 58.828125 C 188.472656 58.203125 188.855469 57.339844 188.855469 56.386719 C 188.855469 55.4375 188.46875 54.574219 187.847656 53.949219 C 187.222656 53.324219 186.359375 52.941406 185.40625 52.941406 Z M 185.40625 52.941406 " fill-opacity="1" fill-rule="nonzero"/><path fill="#000000" d="M 198.417969 52.195312 C 196.105469 52.195312 194.222656 54.074219 194.222656 56.386719 C 194.222656 58.703125 196.105469 60.582031 198.417969 60.582031 C 200.734375 60.582031 202.613281 58.703125 202.613281 56.386719 C 202.613281 54.074219 200.738281 52.195312 198.417969 52.195312 " fill-opacity="1" fill-rule="evenodd"/><path fill="#2b2d31" d="M 194.929688 52.894531 C 195.820312 52 197.058594 51.445312 198.421875 51.445312 C 199.789062 51.445312 201.023438 52 201.917969 52.894531 C 202.8125 53.789062 203.367188 55.023438 203.367188 56.386719 C 203.367188 57.753906 202.8125 58.988281 201.917969 59.882812 C 201.023438 60.777344 199.789062 61.332031 198.421875 61.332031 C 197.058594 61.332031 195.820312 60.777344 194.929688 59.882812 C 194.035156 58.988281 193.480469 57.753906 193.480469 56.386719 C 193.480469 55.023438 194.035156 53.789062 194.929688 52.894531 M 198.417969 52.941406 C 197.46875 52.941406 196.605469 53.328125 195.980469 53.949219 C 195.355469 54.574219 194.972656 55.4375 194.972656 56.386719 C 194.972656 57.339844 195.359375 58.203125 195.980469 58.828125 C 196.605469 59.453125 197.46875 59.835938 198.417969 59.835938 C 199.371094 59.835938 200.234375 59.449219 200.859375 58.828125 C 201.484375 58.203125 201.867188 57.339844 201.867188 56.386719 C 201.867188 55.4375 201.476562 54.574219 200.859375 53.949219 C 200.234375 53.324219 199.375 52.941406 198.417969 52.941406 Z M 198.417969 52.941406 " fill-opacity="1" fill-rule="nonzero"/><path fill="#fa8d70" d="M 207.167969 153.394531 C 202.335938 153.394531 198.421875 149.476562 198.421875 144.648438 C 198.421875 149.480469 194.507812 153.394531 189.675781 153.394531 C 194.511719 153.394531 198.421875 157.3125 198.421875 162.140625 C 198.421875 157.3125 202.335938 153.394531 207.167969 153.394531 " fill-opacity="1" fill-rule="evenodd"/><path fill="#2b2d31" d="M 201.511719 150.304688 C 202.960938 151.753906 204.960938 152.644531 207.167969 152.644531 L 207.167969 154.136719 C 204.960938 154.136719 202.960938 155.03125 201.511719 156.480469 C 200.066406 157.929688 199.171875 159.925781 199.171875 162.136719 L 197.679688 162.136719 C 197.679688 159.925781 196.785156 157.929688 195.339844 156.480469 C 193.890625 155.03125 191.890625 154.136719 189.683594 154.136719 L 189.683594 152.644531 C 191.890625 152.644531 193.890625 151.753906 195.339844 150.304688 C 196.785156 148.855469 197.679688 146.859375 197.679688 144.648438 L 199.171875 144.648438 C 199.167969 146.859375 200.066406 148.855469 201.511719 150.304688 M 203.472656 153.394531 C 202.335938 152.914062 201.316406 152.21875 200.457031 151.359375 C 199.597656 150.503906 198.902344 149.480469 198.421875 148.347656 C 197.945312 149.480469 197.25 150.503906 196.390625 151.359375 C 195.53125 152.21875 194.511719 152.914062 193.375 153.394531 C 194.511719 153.875 195.53125 154.570312 196.390625 155.429688 C 197.25 156.285156 197.945312 157.308594 198.421875 158.441406 C 198.902344 157.308594 199.597656 156.285156 200.457031 155.429688 C 201.316406 154.570312 202.335938 153.875 203.472656 153.394531 Z M 203.472656 153.394531 " fill-opacity="1" fill-rule="nonzero"/><g fill="#fa8d70" fill-opacity="1"><g transform="translate(54.445144, 122.180229)"><g><path d="M 29.703125 -3.75 C 30.078125 -5.726562 30.257812 -8.109375 30.25 -10.890625 L 0.765625 -7.171875 L -0.515625 -12.375 L 16.078125 -41.078125 L 26.875 -36.734375 C 26.570312 -37.710938 26.257812 -38.660156 25.9375 -39.578125 C 25.625 -40.503906 25.265625 -41.375 24.859375 -42.1875 L 46.21875 -44.875 C 45.882812 -42.789062 45.695312 -40.34375 45.65625 -37.53125 C 45.625 -34.71875 45.78125 -31.957031 46.125 -29.25 L 47.59375 -17.546875 L 53.140625 -18.234375 L 53.703125 -13.84375 L 48.65625 -13.21875 C 49.007812 -11.914062 49.375 -10.695312 49.75 -9.5625 C 50.132812 -8.425781 50.570312 -7.382812 51.0625 -6.4375 Z M 20.8125 -14.15625 L 30.359375 -15.359375 L 28.84375 -26.953125 Z M 20.8125 -14.15625 "/></g></g></g><g fill="#fa8d70" fill-opacity="1"><g transform="translate(105.138735, 115.469588)"><g><path d="M 28.453125 0.828125 C 24.679688 0.828125 21.125 0.40625 17.78125 -0.4375 C 14.445312 -1.289062 11.503906 -2.566406 8.953125 -4.265625 C 6.410156 -5.960938 4.410156 -8.070312 2.953125 -10.59375 C 1.503906 -13.125 0.78125 -16.050781 0.78125 -19.375 C 0.78125 -22.726562 1.503906 -25.660156 2.953125 -28.171875 C 4.410156 -30.679688 6.410156 -32.785156 8.953125 -34.484375 C 11.503906 -36.179688 14.445312 -37.453125 17.78125 -38.296875 C 21.125 -39.148438 24.679688 -39.578125 28.453125 -39.578125 C 32.210938 -39.578125 35.757812 -39.148438 39.09375 -38.296875 C 42.4375 -37.453125 45.378906 -36.179688 47.921875 -34.484375 C 50.472656 -32.785156 52.476562 -30.679688 53.9375 -28.171875 C 55.394531 -25.660156 56.125 -22.726562 56.125 -19.375 C 56.125 -16.050781 55.394531 -13.125 53.9375 -10.59375 C 52.476562 -8.070312 50.472656 -5.960938 47.921875 -4.265625 C 45.378906 -2.566406 42.4375 -1.289062 39.09375 -0.4375 C 35.757812 0.40625 32.210938 0.828125 28.453125 0.828125 Z M 28.453125 -13.5625 C 31.179688 -13.5625 33.671875 -13.769531 35.921875 -14.1875 C 38.171875 -14.613281 39.96875 -15.25 41.3125 -16.09375 C 42.65625 -16.945312 43.328125 -18.039062 43.328125 -19.375 C 43.328125 -20.738281 42.65625 -21.84375 41.3125 -22.6875 C 39.96875 -23.539062 38.171875 -24.175781 35.921875 -24.59375 C 33.671875 -25.019531 31.179688 -25.234375 28.453125 -25.234375 C 25.710938 -25.234375 23.21875 -25.019531 20.96875 -24.59375 C 18.71875 -24.175781 16.921875 -23.539062 15.578125 -22.6875 C 14.234375 -21.84375 13.5625 -20.738281 13.5625 -19.375 C 13.5625 -18.039062 14.234375 -16.945312 15.578125 -16.09375 C 16.921875 -15.25 18.71875 -14.613281 20.96875 -14.1875 C 23.21875 -13.769531 25.710938 -13.5625 28.453125 -13.5625 Z M 28.453125 -13.5625 "/></g></g></g><g fill="#fa8d70" fill-opacity="1"><g transform="translate(157.097289, 115.203321)"><g><path d="M 29.703125 3.75 C 30.554688 1.914062 31.320312 -0.347656 32 -3.046875 L 2.515625 -6.765625 L 2.578125 -12.125 L 25.765625 -35.796875 L 35.15625 -28.921875 C 35.101562 -29.941406 35.035156 -30.9375 34.953125 -31.90625 C 34.878906 -32.882812 34.742188 -33.8125 34.546875 -34.6875 L 55.90625 -32 C 55.070312 -30.0625 54.285156 -27.734375 53.546875 -25.015625 C 52.816406 -22.296875 52.28125 -19.582031 51.9375 -16.875 L 50.46875 -5.171875 L 56.015625 -4.484375 L 55.453125 -0.09375 L 50.40625 -0.71875 C 50.425781 0.625 50.476562 1.894531 50.5625 3.09375 C 50.65625 4.289062 50.820312 5.40625 51.0625 6.4375 Z M 23.6875 -8.5625 L 33.234375 -7.359375 L 34.625 -18.953125 Z M 23.6875 -8.5625 "/></g></g></g><g clip-path="url(#c2e90ec755)"><path fill="#000000" d="M 56.449219 157.566406 L 56.378906 157.800781 C 55.804688 159.476562 54.742188 160.941406 53.320312 162.003906 L 53.113281 162.160156 C 51.660156 163.175781 49.9375 163.738281 48.167969 163.761719 L 47.921875 163.761719 C 46.144531 163.738281 44.421875 163.175781 42.96875 162.160156 L 42.769531 162.003906 C 41.339844 160.941406 40.277344 159.476562 39.703125 157.800781 L 39.628906 157.566406 C 39.105469 155.867188 39.105469 154.050781 39.628906 152.355469 L 39.703125 152.121094 C 40.277344 150.445312 41.339844 148.972656 42.769531 147.902344 L 42.96875 147.765625 C 44.421875 146.742188 46.144531 146.179688 47.921875 146.160156 L 48.167969 146.160156 C 49.9375 146.179688 51.660156 146.742188 53.113281 147.765625 L 53.320312 147.902344 C 54.742188 148.972656 55.804688 150.445312 56.378906 152.121094 L 56.449219 152.355469 C 56.976562 154.050781 56.976562 155.867188 56.449219 157.566406 Z M 64.660156 152.941406 L 67.167969 151.21875 L 65.714844 146.742188 L 62.679688 146.824219 L 60.304688 143.558594 L 61.324219 140.6875 L 57.515625 137.925781 L 55.101562 139.777344 L 51.25 138.535156 L 50.394531 135.605469 L 45.6875 135.605469 L 44.832031 138.535156 L 40.980469 139.777344 L 38.574219 137.925781 L 34.769531 140.6875 L 35.789062 143.558594 L 33.410156 146.824219 L 30.367188 146.742188 L 28.914062 151.21875 L 31.417969 152.941406 L 31.417969 156.980469 L 28.914062 158.703125 L 30.367188 163.175781 L 33.410156 163.097656 L 35.789062 166.363281 L 34.769531 169.230469 L 38.574219 171.996094 L 40.980469 170.144531 L 44.832031 171.390625 L 45.6875 174.304688 L 50.394531 174.304688 L 51.25 171.390625 L 55.101562 170.144531 L 57.515625 171.996094 L 61.324219 169.230469 L 60.304688 166.363281 L 62.679688 163.097656 L 65.714844 163.175781 L 67.167969 158.703125 L 64.660156 156.980469 L 64.660156 152.941406 " fill-opacity="1" fill-rule="nonzero"/></g><g clip-path="url(#0c42258a91)"><path fill="#000000" d="M 80.25 139.316406 L 80.191406 139.480469 C 79.792969 140.664062 79.042969 141.707031 78.035156 142.445312 L 77.894531 142.550781 C 76.878906 143.277344 75.660156 143.664062 74.40625 143.6875 L 74.242188 143.6875 C 72.988281 143.664062 71.769531 143.277344 70.75 142.550781 L 70.609375 142.445312 C 69.617188 141.707031 68.867188 140.664062 68.453125 139.480469 L 68.410156 139.316406 C 68.035156 138.125 68.035156 136.847656 68.410156 135.652344 L 68.453125 135.488281 C 68.867188 134.304688 69.617188 133.277344 70.609375 132.523438 L 70.75 132.421875 C 71.769531 131.703125 72.988281 131.308594 74.242188 131.296875 L 74.40625 131.296875 C 75.660156 131.308594 76.878906 131.703125 77.894531 132.421875 L 78.035156 132.523438 C 79.042969 133.277344 79.792969 134.304688 80.191406 135.488281 L 80.25 135.652344 C 80.613281 136.847656 80.613281 138.125 80.25 139.316406 Z M 85.757812 138.125 L 88.542969 136.648438 L 87.96875 133.414062 L 84.851562 132.980469 L 83.492188 130.628906 L 84.679688 127.710938 L 82.160156 125.589844 L 79.488281 127.265625 L 76.9375 126.339844 L 75.960938 123.339844 L 72.683594 123.339844 L 71.710938 126.339844 L 69.160156 127.265625 L 66.488281 125.589844 L 63.96875 127.710938 L 65.152344 130.628906 L 63.796875 132.980469 L 60.679688 133.414062 L 60.105469 136.648438 L 62.890625 138.125 L 63.359375 140.804688 L 61.253906 143.136719 L 62.890625 145.984375 L 65.972656 145.328125 L 68.058594 147.074219 L 67.941406 150.222656 L 71.03125 151.347656 L 72.964844 148.867188 L 75.679688 148.867188 L 77.613281 151.347656 L 80.707031 150.222656 L 80.589844 147.074219 L 82.675781 145.328125 L 85.757812 145.984375 L 87.394531 143.136719 L 85.289062 140.804688 L 85.757812 138.125 " fill-opacity="1" fill-rule="nonzero"/></g><path fill="#000000" d="M 143.773438 151.007812 L 143.601562 151.226562 L 143.441406 151 L 141.71875 148.550781 L 141.699219 148.519531 L 141.691406 148.484375 L 140.773438 144.96875 C 140.71875 144.757812 140.585938 144.578125 140.394531 144.464844 C 138.792969 143.523438 137.050781 143.027344 135.351562 143.027344 C 134.617188 143.027344 133.898438 143.125 133.226562 143.3125 C 131.707031 143.734375 130.527344 144.601562 129.910156 145.742188 C 128.941406 147.539062 129.585938 149.652344 130.054688 150.75 L 130.109375 150.875 L 130.015625 150.972656 C 129.117188 151.902344 127.585938 153.144531 125.398438 153.777344 C 124.464844 154.046875 123.503906 154.183594 122.53125 154.183594 C 122.078125 154.183594 121.617188 154.15625 121.15625 154.097656 C 121.15625 154.097656 121.152344 154.097656 121.152344 154.097656 L 121.128906 154.097656 L 121.121094 154.09375 C 121.097656 154.089844 121.078125 154.089844 121.054688 154.085938 L 121.050781 154.085938 C 121.050781 154.085938 121.046875 154.085938 121.046875 154.085938 L 121.039062 154.085938 C 121.039062 154.085938 121.019531 154.085938 121.019531 154.085938 C 121.015625 154.085938 121.011719 154.085938 121.011719 154.085938 C 121 154.085938 120.988281 154.085938 120.980469 154.085938 C 120.957031 154.089844 120.9375 154.089844 120.917969 154.09375 L 120.894531 154.097656 C 120.875 154.101562 120.855469 154.105469 120.839844 154.109375 C 120.832031 154.113281 120.824219 154.113281 120.816406 154.117188 C 120.8125 154.117188 120.808594 154.117188 120.804688 154.117188 C 120.804688 154.117188 120.800781 154.121094 120.800781 154.121094 C 120.316406 154.25 119.601562 154.511719 118.9375 155.027344 L 118.78125 155.148438 L 118.65625 154.996094 C 117.480469 153.558594 116.113281 151.246094 116.273438 148.390625 C 116.433594 145.414062 118.167969 143.449219 120.242188 141.375 C 120.25 141.363281 120.257812 141.355469 120.269531 141.347656 C 120.382812 141.234375 120.496094 141.121094 120.605469 141.011719 C 121.671875 139.949219 123.390625 138.410156 125.507812 137.121094 C 128.085938 135.546875 130.578125 134.75 132.917969 134.75 L 132.917969 134.851562 L 132.917969 134.75 C 133.890625 134.75 134.847656 134.890625 135.761719 135.167969 C 137.496094 135.699219 139.089844 136.710938 140.496094 138.171875 C 140.566406 138.25 140.65625 138.3125 140.757812 138.355469 C 140.945312 138.441406 142.652344 139.222656 144.007812 140.953125 C 144.820312 141.992188 145.34375 143.164062 145.566406 144.445312 C 146.09375 147.46875 144.667969 149.851562 143.773438 151.003906 Z M 143.773438 151.007812 " fill-opacity="1" fill-rule="nonzero"/><path fill="#fa8d70" d="M 121.8125 162.945312 L 121.992188 163.445312 L 121.523438 163.199219 C 120.476562 162.644531 119.726562 161.882812 119.300781 160.925781 C 119.117188 160.515625 118.253906 158.375 119.417969 156.855469 C 119.582031 156.644531 119.777344 156.453125 120.003906 156.285156 L 120.292969 156.070312 L 120.332031 156.429688 C 120.566406 158.691406 121.066406 160.882812 121.8125 162.945312 Z M 142.53125 152.808594 C 143.375 159.179688 141.941406 165.402344 138.695312 169.457031 C 137.175781 171.351562 135.402344 172.515625 133.832031 172.652344 C 133.726562 172.660156 133.613281 172.664062 133.5 172.664062 C 132.003906 172.664062 130.253906 171.863281 128.578125 170.402344 C 126.820312 168.871094 125.347656 166.859375 124.195312 164.425781 L 124.1875 164.410156 C 124.175781 164.371094 124.15625 164.332031 124.132812 164.289062 L 124.125 164.28125 L 124.121094 164.273438 C 122.976562 161.796875 122.222656 158.953125 121.9375 156.050781 L 121.917969 155.816406 L 122.148438 155.824219 C 122.277344 155.828125 122.40625 155.832031 122.53125 155.832031 C 123.65625 155.832031 124.773438 155.671875 125.855469 155.359375 C 126.722656 155.105469 127.566406 154.753906 128.363281 154.304688 L 128.582031 154.652344 C 128.167969 154.949219 127.929688 155.445312 127.945312 155.984375 C 127.96875 156.816406 128.59375 157.492188 129.347656 157.492188 C 129.359375 157.492188 129.371094 157.492188 129.382812 157.492188 C 129.753906 157.480469 130.097656 157.3125 130.351562 157.019531 C 130.613281 156.722656 130.75 156.328125 130.738281 155.914062 C 130.71875 155.082031 130.089844 154.40625 129.335938 154.40625 C 129.324219 154.40625 129.316406 154.40625 129.304688 154.40625 C 129.136719 154.410156 128.972656 154.449219 128.8125 154.519531 L 128.625 154.15625 C 129.785156 153.464844 130.824219 152.585938 131.714844 151.546875 C 131.933594 151.289062 131.972656 150.921875 131.8125 150.625 C 131.679688 150.367188 130.511719 148.089844 131.355469 146.523438 C 131.753906 145.789062 132.59375 145.195312 133.667969 144.894531 C 134.199219 144.746094 134.769531 144.667969 135.359375 144.667969 C 136.621094 144.667969 137.949219 145.019531 139.195312 145.675781 L 139.273438 145.71875 L 139.296875 145.804688 L 140.148438 149.078125 C 140.171875 149.171875 140.214844 149.261719 140.273438 149.34375 L 142.453125 152.445312 L 142.46875 152.464844 L 142.476562 152.484375 C 142.484375 152.507812 142.492188 152.527344 142.503906 152.546875 L 142.523438 152.589844 L 142.523438 152.65625 C 142.523438 152.664062 142.523438 152.675781 142.523438 152.6875 C 142.523438 152.695312 142.523438 152.699219 142.523438 152.707031 C 142.523438 152.71875 142.523438 152.726562 142.527344 152.734375 L 142.527344 152.75 C 142.527344 152.761719 142.527344 152.773438 142.53125 152.78125 Z M 136.855469 154.214844 C 136.84375 154.214844 136.832031 154.214844 136.820312 154.214844 C 136.453125 154.222656 136.109375 154.390625 135.851562 154.6875 C 135.589844 154.984375 135.453125 155.378906 135.464844 155.792969 C 135.484375 156.621094 136.113281 157.296875 136.867188 157.296875 C 136.878906 157.296875 136.890625 157.296875 136.902344 157.296875 C 137.269531 157.289062 137.617188 157.121094 137.871094 156.828125 C 138.132812 156.527344 138.269531 156.136719 138.257812 155.722656 C 138.238281 154.890625 137.609375 154.214844 136.855469 154.214844 Z M 134.382812 158.121094 C 134.394531 157.902344 134.316406 157.691406 134.171875 157.527344 C 134.023438 157.367188 133.820312 157.269531 133.601562 157.261719 C 133.589844 157.261719 133.578125 157.261719 133.566406 157.261719 C 133.125 157.261719 132.765625 157.609375 132.746094 158.046875 C 132.71875 158.65625 132.785156 159.582031 133.261719 160.527344 C 133.410156 160.824219 133.589844 161.101562 133.792969 161.351562 L 133.984375 161.585938 L 133.695312 161.675781 L 132.03125 162.214844 C 131.597656 162.351562 131.359375 162.816406 131.5 163.25 C 131.605469 163.589844 131.921875 163.820312 132.28125 163.820312 C 132.367188 163.820312 132.449219 163.808594 132.53125 163.78125 L 136.074219 162.640625 C 136.40625 162.535156 136.636719 162.230469 136.644531 161.882812 C 136.65625 161.53125 136.441406 161.214844 136.117188 161.089844 C 135.839844 160.984375 135.15625 160.648438 134.726562 159.789062 C 134.394531 159.125 134.371094 158.460938 134.382812 158.121094 Z M 144.625 154.457031 L 144.339844 154.367188 L 144.359375 154.664062 C 144.503906 157.117188 144.339844 159.523438 143.863281 161.8125 L 143.773438 162.257812 L 144.167969 162.03125 C 144.980469 161.566406 146.050781 160.71875 146.515625 159.332031 C 146.65625 158.898438 147.304688 156.683594 145.996094 155.289062 C 145.636719 154.910156 145.175781 154.628906 144.625 154.457031 Z M 133.972656 174.289062 C 133.816406 174.304688 133.65625 174.3125 133.496094 174.3125 C 132.609375 174.3125 131.671875 174.105469 130.707031 173.699219 L 130.289062 173.523438 L 130.433594 173.957031 C 130.632812 174.539062 130.9375 175.058594 131.34375 175.5 C 131.984375 176.195312 132.820312 176.613281 133.574219 176.617188 L 133.585938 176.617188 C 134.394531 176.617188 135.269531 176.15625 135.933594 175.382812 C 136.339844 174.902344 136.636719 174.347656 136.808594 173.730469 L 136.941406 173.265625 L 136.515625 173.496094 C 135.664062 173.953125 134.8125 174.21875 133.976562 174.292969 Z M 79.949219 157.316406 L 79.804688 157.105469 L 79.628906 157.292969 C 79.355469 157.585938 78.972656 158.222656 78.695312 158.6875 C 77.832031 160.132812 76.652344 162.109375 74.636719 162.398438 C 74.472656 162.421875 74.304688 162.433594 74.144531 162.433594 C 71.675781 162.433594 69.613281 159.757812 67.792969 157.398438 L 67.785156 157.390625 C 66.460938 155.671875 64.957031 153.71875 63.871094 153.71875 C 63.800781 153.71875 63.730469 153.730469 63.664062 153.746094 C 62.578125 154.019531 61.867188 156.214844 61.175781 158.640625 C 60.671875 160.410156 60.496094 162.253906 60.65625 164.121094 L 60.660156 164.179688 L 60.695312 164.222656 C 61.910156 165.953125 63.386719 167.4375 65.082031 168.632812 C 68.972656 171.382812 73.085938 171.976562 75.851562 171.988281 L 75.933594 171.988281 C 75.933594 171.988281 75.992188 171.929688 75.992188 171.929688 L 81.238281 167.039062 L 81.304688 166.976562 L 81.300781 166.882812 C 81.066406 159.707031 80.277344 157.800781 79.949219 157.316406 Z M 206.007812 158.640625 C 205.316406 156.214844 204.605469 154.019531 203.523438 153.746094 C 203.457031 153.730469 203.386719 153.71875 203.3125 153.71875 C 202.230469 153.71875 200.722656 155.671875 199.394531 157.394531 C 197.574219 159.757812 195.507812 162.433594 193.039062 162.433594 C 192.878906 162.433594 192.710938 162.421875 192.546875 162.398438 C 190.53125 162.109375 189.351562 160.132812 188.488281 158.691406 C 188.210938 158.222656 187.832031 157.585938 187.554688 157.289062 L 187.378906 157.101562 L 187.234375 157.316406 C 186.90625 157.800781 186.117188 159.707031 185.882812 166.882812 L 185.878906 166.976562 L 185.949219 167.042969 L 191.191406 171.933594 L 191.253906 171.988281 L 191.332031 171.988281 C 194.097656 171.976562 198.210938 171.382812 202.105469 168.632812 C 203.800781 167.4375 205.277344 165.953125 206.492188 164.222656 L 206.523438 164.179688 L 206.527344 164.121094 C 206.6875 162.253906 206.515625 160.410156 206.007812 158.640625 Z M 206.007812 158.640625 " fill-opacity="1" fill-rule="nonzero"/><path fill="#faf9e1" d="M 195.179688 177.898438 L 195.066406 178.046875 C 188.953125 186.171875 182.550781 194.128906 176.039062 201.691406 C 173.0625 205.144531 170.917969 207.484375 168.773438 209.203125 C 166.324219 211.164062 164.105469 212.078125 161.789062 212.078125 C 161.65625 212.078125 161.519531 212.074219 161.382812 212.070312 C 158.769531 211.949219 156.179688 210.691406 153.695312 208.328125 C 153.542969 208.183594 153.34375 208.105469 153.132812 208.105469 C 152.90625 208.105469 152.695312 208.195312 152.535156 208.363281 C 152.386719 208.519531 152.304688 208.730469 152.3125 208.949219 C 152.316406 209.167969 152.410156 209.375 152.566406 209.523438 C 155.347656 212.164062 158.289062 213.574219 161.308594 213.710938 C 161.476562 213.71875 161.640625 213.722656 161.804688 213.722656 C 161.984375 213.722656 162.167969 213.71875 162.367188 213.707031 L 162.53125 213.695312 L 162.578125 213.855469 C 163.214844 216.144531 163.75 218.484375 164.160156 220.804688 C 164.667969 223.695312 165.003906 226.648438 165.160156 229.582031 L 165.171875 229.796875 L 108.351562 229.796875 L 108.371094 229.574219 C 108.660156 226.304688 109.070312 223.007812 109.589844 219.777344 C 110.167969 216.1875 110.894531 212.566406 111.757812 209.015625 C 111.851562 208.628906 111.65625 208.226562 111.285156 208.070312 C 111.183594 208.023438 111.074219 208 110.960938 208 C 110.683594 208 110.425781 208.140625 110.273438 208.375 C 108.910156 210.464844 107.359375 211.714844 105.664062 212.085938 C 105.316406 212.160156 104.960938 212.199219 104.597656 212.199219 C 100.53125 212.199219 96.101562 207.4375 91.148438 201.6875 C 84.632812 194.125 78.230469 186.171875 72.117188 178.042969 L 72.003906 177.894531 L 72.140625 177.769531 L 86.992188 163.914062 L 87.144531 163.773438 L 87.285156 163.925781 L 105.847656 183.859375 L 105.992188 184.011719 L 105.835938 184.152344 C 104.828125 185.070312 103.84375 186.035156 102.910156 187.019531 C 102.597656 187.347656 102.613281 187.871094 102.9375 188.183594 C 103.09375 188.328125 103.292969 188.410156 103.503906 188.410156 C 103.730469 188.410156 103.941406 188.320312 104.097656 188.152344 C 107.851562 184.207031 112.140625 180.839844 116.851562 178.148438 C 120.472656 176.082031 124.34375 174.417969 128.351562 173.207031 L 128.578125 173.136719 L 128.613281 173.371094 C 128.792969 174.601562 129.320312 175.722656 130.132812 176.609375 C 131.09375 177.652344 132.34375 178.253906 133.566406 178.257812 C 133.574219 178.257812 133.582031 178.257812 133.589844 178.257812 C 134.886719 178.253906 136.195312 177.59375 137.175781 176.449219 C 137.914062 175.582031 138.390625 174.519531 138.554688 173.371094 L 138.585938 173.132812 L 138.8125 173.199219 C 142.828125 174.414062 146.703125 176.078125 150.328125 178.148438 C 155.039062 180.839844 159.328125 184.207031 163.078125 188.152344 C 163.238281 188.316406 163.449219 188.40625 163.675781 188.40625 C 163.886719 188.40625 164.085938 188.328125 164.242188 188.179688 C 164.566406 187.867188 164.582031 187.347656 164.269531 187.019531 C 163.335938 186.035156 162.351562 185.070312 161.34375 184.152344 L 161.1875 184.011719 L 161.332031 183.859375 L 179.894531 163.925781 L 180.035156 163.773438 L 180.183594 163.914062 L 195.039062 177.769531 L 195.171875 177.894531 Z M 195.179688 177.898438 " fill-opacity="1" fill-rule="nonzero"/><g clip-path="url(#f5da1d997f)"><path fill="#000000" d="M 136.816406 154.007812 C 135.929688 154.03125 135.234375 154.832031 135.257812 155.796875 C 135.28125 156.761719 136.019531 157.527344 136.90625 157.503906 C 137.789062 157.480469 138.488281 156.679688 138.460938 155.714844 C 138.4375 154.75 137.699219 153.988281 136.816406 154.007812 Z M 136.1875 160.894531 C 135.9375 160.800781 135.308594 160.492188 134.90625 159.695312 C 134.597656 159.074219 134.574219 158.449219 134.585938 158.128906 C 134.613281 157.5625 134.175781 157.082031 133.609375 157.054688 C 133.046875 157.03125 132.5625 157.46875 132.539062 158.039062 C 132.511719 158.667969 132.578125 159.628906 133.074219 160.617188 C 133.242188 160.949219 133.429688 161.234375 133.632812 161.480469 L 131.964844 162.015625 C 131.425781 162.191406 131.128906 162.769531 131.300781 163.308594 C 131.441406 163.746094 131.84375 164.023438 132.277344 164.023438 C 132.382812 164.023438 132.488281 164.007812 132.59375 163.972656 L 136.136719 162.835938 C 136.550781 162.703125 136.835938 162.320312 136.847656 161.882812 C 136.859375 161.449219 136.59375 161.050781 136.1875 160.894531 Z M 136.1875 160.894531 C 135.9375 160.800781 135.308594 160.492188 134.90625 159.695312 C 134.597656 159.074219 134.574219 158.449219 134.585938 158.128906 C 134.613281 157.5625 134.175781 157.082031 133.609375 157.054688 C 133.046875 157.03125 132.5625 157.46875 132.539062 158.039062 C 132.511719 158.667969 132.578125 159.628906 133.074219 160.617188 C 133.242188 160.949219 133.429688 161.234375 133.632812 161.480469 L 131.964844 162.015625 C 131.425781 162.191406 131.128906 162.769531 131.300781 163.308594 C 131.441406 163.746094 131.84375 164.023438 132.277344 164.023438 C 132.382812 164.023438 132.488281 164.007812 132.59375 163.972656 L 136.136719 162.835938 C 136.550781 162.703125 136.835938 162.320312 136.847656 161.882812 C 136.859375 161.449219 136.59375 161.050781 136.1875 160.894531 Z M 136.816406 154.007812 C 135.929688 154.03125 135.234375 154.832031 135.257812 155.796875 C 135.28125 156.761719 136.019531 157.527344 136.90625 157.503906 C 137.789062 157.480469 138.488281 156.679688 138.460938 155.714844 C 138.4375 154.75 137.699219 153.988281 136.816406 154.007812 Z M 136.816406 154.007812 C 135.929688 154.03125 135.234375 154.832031 135.257812 155.796875 C 135.28125 156.761719 136.019531 157.527344 136.90625 157.503906 C 137.789062 157.480469 138.488281 156.679688 138.460938 155.714844 C 138.4375 154.75 137.699219 153.988281 136.816406 154.007812 Z M 136.1875 160.894531 C 135.9375 160.800781 135.308594 160.492188 134.90625 159.695312 C 134.597656 159.074219 134.574219 158.449219 134.585938 158.128906 C 134.613281 157.5625 134.175781 157.082031 133.609375 157.054688 C 133.046875 157.03125 132.5625 157.46875 132.539062 158.039062 C 132.511719 158.667969 132.578125 159.628906 133.074219 160.617188 C 133.242188 160.949219 133.429688 161.234375 133.632812 161.480469 L 131.964844 162.015625 C 131.425781 162.191406 131.128906 162.769531 131.300781 163.308594 C 131.441406 163.746094 131.84375 164.023438 132.277344 164.023438 C 132.382812 164.023438 132.488281 164.007812 132.59375 163.972656 L 136.136719 162.835938 C 136.550781 162.703125 136.835938 162.320312 136.847656 161.882812 C 136.859375 161.449219 136.59375 161.050781 136.1875 160.894531 Z M 136.1875 160.894531 C 135.9375 160.800781 135.308594 160.492188 134.90625 159.695312 C 134.597656 159.074219 134.574219 158.449219 134.585938 158.128906 C 134.613281 157.5625 134.175781 157.082031 133.609375 157.054688 C 133.046875 157.03125 132.5625 157.46875 132.539062 158.039062 C 132.511719 158.667969 132.578125 159.628906 133.074219 160.617188 C 133.242188 160.949219 133.429688 161.234375 133.632812 161.480469 L 131.964844 162.015625 C 131.425781 162.191406 131.128906 162.769531 131.300781 163.308594 C 131.441406 163.746094 131.84375 164.023438 132.277344 164.023438 C 132.382812 164.023438 132.488281 164.007812 132.59375 163.972656 L 136.136719 162.835938 C 136.550781 162.703125 136.835938 162.320312 136.847656 161.882812 C 136.859375 161.449219 136.59375 161.050781 136.1875 160.894531 Z M 136.816406 154.007812 C 135.929688 154.03125 135.234375 154.832031 135.257812 155.796875 C 135.28125 156.761719 136.019531 157.527344 136.90625 157.503906 C 137.789062 157.480469 138.488281 156.679688 138.460938 155.714844 C 138.4375 154.75 137.699219 153.988281 136.816406 154.007812 Z M 136.816406 154.007812 C 135.929688 154.03125 135.234375 154.832031 135.257812 155.796875 C 135.28125 156.761719 136.019531 157.527344 136.90625 157.503906 C 137.789062 157.480469 138.488281 156.679688 138.460938 155.714844 C 138.4375 154.75 137.699219 153.988281 136.816406 154.007812 Z M 136.1875 160.894531 C 135.9375 160.800781 135.308594 160.492188 134.90625 159.695312 C 134.597656 159.074219 134.574219 158.449219 134.585938 158.128906 C 134.613281 157.5625 134.175781 157.082031 133.609375 157.054688 C 133.046875 157.03125 132.5625 157.46875 132.539062 158.039062 C 132.511719 158.667969 132.578125 159.628906 133.074219 160.617188 C 133.242188 160.949219 133.429688 161.234375 133.632812 161.480469 L 131.964844 162.015625 C 131.425781 162.191406 131.128906 162.769531 131.300781 163.308594 C 131.441406 163.746094 131.84375 164.023438 132.277344 164.023438 C 132.382812 164.023438 132.488281 164.007812 132.59375 163.972656 L 136.136719 162.835938 C 136.550781 162.703125 136.835938 162.320312 136.847656 161.882812 C 136.859375 161.449219 136.59375 161.050781 136.1875 160.894531 Z M 136.1875 160.894531 C 135.9375 160.800781 135.308594 160.492188 134.90625 159.695312 C 134.597656 159.074219 134.574219 158.449219 134.585938 158.128906 C 134.613281 157.5625 134.175781 157.082031 133.609375 157.054688 C 133.046875 157.03125 132.5625 157.46875 132.539062 158.039062 C 132.511719 158.667969 132.578125 159.628906 133.074219 160.617188 C 133.242188 160.949219 133.429688 161.234375 133.632812 161.480469 L 131.964844 162.015625 C 131.425781 162.191406 131.128906 162.769531 131.300781 163.308594 C 131.441406 163.746094 131.84375 164.023438 132.277344 164.023438 C 132.382812 164.023438 132.488281 164.007812 132.59375 163.972656 L 136.136719 162.835938 C 136.550781 162.703125 136.835938 162.320312 136.847656 161.882812 C 136.859375 161.449219 136.59375 161.050781 136.1875 160.894531 Z M 136.816406 154.007812 C 135.929688 154.03125 135.234375 154.832031 135.257812 155.796875 C 135.28125 156.761719 136.019531 157.527344 136.90625 157.503906 C 137.789062 157.480469 138.488281 156.679688 138.460938 155.714844 C 138.4375 154.75 137.699219 153.988281 136.816406 154.007812 Z M 136.816406 154.007812 C 135.929688 154.03125 135.234375 154.832031 135.257812 155.796875 C 135.28125 156.761719 136.019531 157.527344 136.90625 157.503906 C 137.789062 157.480469 138.488281 156.679688 138.460938 155.714844 C 138.4375 154.75 137.699219 153.988281 136.816406 154.007812 Z M 136.1875 160.894531 C 135.9375 160.800781 135.308594 160.492188 134.90625 159.695312 C 134.597656 159.074219 134.574219 158.449219 134.585938 158.128906 C 134.613281 157.5625 134.175781 157.082031 133.609375 157.054688 C 133.046875 157.03125 132.5625 157.46875 132.539062 158.039062 C 132.511719 158.667969 132.578125 159.628906 133.074219 160.617188 C 133.242188 160.949219 133.429688 161.234375 133.632812 161.480469 L 131.964844 162.015625 C 131.425781 162.191406 131.128906 162.769531 131.300781 163.308594 C 131.441406 163.746094 131.84375 164.023438 132.277344 164.023438 C 132.382812 164.023438 132.488281 164.007812 132.59375 163.972656 L 136.136719 162.835938 C 136.550781 162.703125 136.835938 162.320312 136.847656 161.882812 C 136.859375 161.449219 136.59375 161.050781 136.1875 160.894531 Z M 136.1875 160.894531 C 135.9375 160.800781 135.308594 160.492188 134.90625 159.695312 C 134.597656 159.074219 134.574219 158.449219 134.585938 158.128906 C 134.613281 157.5625 134.175781 157.082031 133.609375 157.054688 C 133.046875 157.03125 132.5625 157.46875 132.539062 158.039062 C 132.511719 158.667969 132.578125 159.628906 133.074219 160.617188 C 133.242188 160.949219 133.429688 161.234375 133.632812 161.480469 L 131.964844 162.015625 C 131.425781 162.191406 131.128906 162.769531 131.300781 163.308594 C 131.441406 163.746094 131.84375 164.023438 132.277344 164.023438 C 132.382812 164.023438 132.488281 164.007812 132.59375 163.972656 L 136.136719 162.835938 C 136.550781 162.703125 136.835938 162.320312 136.847656 161.882812 C 136.859375 161.449219 136.59375 161.050781 136.1875 160.894531 Z M 136.816406 154.007812 C 135.929688 154.03125 135.234375 154.832031 135.257812 155.796875 C 135.28125 156.761719 136.019531 157.527344 136.90625 157.503906 C 137.789062 157.480469 138.488281 156.679688 138.460938 155.714844 C 138.4375 154.75 137.699219 153.988281 136.816406 154.007812 Z M 136.816406 154.007812 C 135.929688 154.03125 135.234375 154.832031 135.257812 155.796875 C 135.28125 156.761719 136.019531 157.527344 136.90625 157.503906 C 137.789062 157.480469 138.488281 156.679688 138.460938 155.714844 C 138.4375 154.75 137.699219 153.988281 136.816406 154.007812 Z M 136.1875 160.894531 C 135.9375 160.800781 135.308594 160.492188 134.90625 159.695312 C 134.597656 159.074219 134.574219 158.449219 134.585938 158.128906 C 134.613281 157.5625 134.175781 157.082031 133.609375 157.054688 C 133.046875 157.03125 132.5625 157.46875 132.539062 158.039062 C 132.511719 158.667969 132.578125 159.628906 133.074219 160.617188 C 133.242188 160.949219 133.429688 161.234375 133.632812 161.480469 L 131.964844 162.015625 C 131.425781 162.191406 131.128906 162.769531 131.300781 163.308594 C 131.441406 163.746094 131.84375 164.023438 132.277344 164.023438 C 132.382812 164.023438 132.488281 164.007812 132.59375 163.972656 L 136.136719 162.835938 C 136.550781 162.703125 136.835938 162.320312 136.847656 161.882812 C 136.859375 161.449219 136.59375 161.050781 136.1875 160.894531 Z M 207.785156 158.132812 C 207.03125 155.492188 206.179688 152.503906 203.972656 151.949219 C 201.699219 151.378906 199.871094 153.753906 197.933594 156.265625 C 196.292969 158.390625 194.433594 160.796875 192.804688 160.566406 C 191.660156 160.402344 190.816406 158.988281 190.070312 157.742188 C 189.292969 156.433594 188.484375 155.082031 187.109375 155.296875 C 185.742188 155.511719 185.183594 157.171875 184.886719 158.398438 C 184.511719 159.941406 184.253906 162.128906 184.109375 165.046875 L 180.699219 161.863281 C 180.285156 161.476562 179.636719 161.5 179.25 161.914062 L 159.941406 182.644531 C 157.238281 180.347656 154.328125 178.304688 151.246094 176.546875 C 147.507812 174.410156 143.535156 172.703125 139.410156 171.453125 C 139.65625 171.1875 139.898438 170.910156 140.132812 170.613281 C 141.542969 168.851562 142.644531 166.730469 143.398438 164.382812 C 144.457031 164.046875 147.273438 162.890625 148.265625 159.917969 C 148.464844 159.3125 149.371094 156.1875 147.339844 154.023438 C 146.5625 153.195312 145.625 152.792969 144.855469 152.601562 C 146.070312 151.195312 148.089844 148.164062 147.386719 144.128906 C 147.113281 142.546875 146.464844 141.09375 145.460938 139.8125 C 144.042969 138 142.328125 137.058594 141.691406 136.75 C 140.097656 135.132812 138.285156 134.003906 136.300781 133.398438 C 132.828125 132.339844 129.074219 132.933594 125.148438 135.167969 C 123.152344 136.300781 121.1875 137.824219 119.304688 139.699219 C 119.199219 139.804688 119.09375 139.910156 118.988281 140.015625 C 118.980469 140.023438 118.96875 140.03125 118.960938 140.042969 C 116.6875 142.316406 114.628906 144.660156 114.429688 148.289062 C 114.21875 152.054688 116.195312 154.984375 117.488281 156.476562 C 116.390625 158.679688 117.382812 161.164062 117.613281 161.683594 C 118.832031 164.398438 121.519531 165.320312 122.71875 165.605469 C 123.890625 167.972656 125.402344 170.035156 127.183594 171.632812 C 123.269531 172.867188 119.496094 174.511719 115.9375 176.546875 C 112.855469 178.304688 109.945312 180.347656 107.242188 182.644531 L 87.933594 161.914062 C 87.546875 161.5 86.898438 161.476562 86.484375 161.863281 L 83.074219 165.046875 C 82.925781 162.128906 82.671875 159.941406 82.296875 158.398438 C 81.996094 157.171875 81.441406 155.511719 80.074219 155.296875 C 78.695312 155.082031 77.890625 156.433594 77.113281 157.742188 C 76.367188 158.988281 75.519531 160.402344 74.378906 160.566406 C 72.746094 160.796875 70.890625 158.390625 69.25 156.265625 C 67.3125 153.753906 65.484375 151.382812 63.210938 151.949219 C 61.003906 152.503906 60.152344 155.492188 59.398438 158.132812 C 58.804688 160.214844 58.617188 162.382812 58.84375 164.574219 C 58.859375 164.746094 58.921875 164.910156 59.015625 165.050781 C 60.386719 167.058594 62.066406 168.773438 64.015625 170.148438 C 67.386719 172.527344 70.894531 173.445312 73.761719 173.730469 L 70.207031 177.050781 C 69.820312 177.40625 69.769531 177.996094 70.085938 178.417969 C 76.390625 186.835938 83.007812 195.074219 89.75 202.898438 C 95.164062 209.1875 99.773438 214.058594 104.550781 214.058594 C 105.050781 214.058594 105.554688 214.003906 106.058594 213.894531 C 107.125 213.660156 108.136719 213.179688 109.078125 212.453125 C 108.582031 214.789062 108.144531 217.140625 107.765625 219.484375 C 107.179688 223.132812 106.734375 226.851562 106.4375 230.539062 C 106.414062 230.824219 106.511719 231.109375 106.707031 231.320312 C 106.902344 231.53125 107.175781 231.648438 107.460938 231.648438 L 166.03125 231.648438 C 166.308594 231.648438 166.574219 231.535156 166.769531 231.335938 C 166.960938 231.132812 167.066406 230.863281 167.054688 230.582031 C 166.925781 227.207031 166.5625 223.808594 165.976562 220.484375 C 165.566406 218.175781 165.046875 215.863281 164.421875 213.597656 C 166.164062 213.148438 167.886719 212.246094 169.6875 210.839844 C 172.238281 208.851562 174.707031 206.066406 177.433594 202.898438 C 184.175781 195.074219 190.792969 186.835938 197.097656 178.417969 C 197.414062 177.996094 197.359375 177.40625 196.976562 177.050781 L 193.421875 173.730469 C 196.289062 173.445312 199.796875 172.527344 203.167969 170.148438 C 205.113281 168.773438 206.796875 167.058594 208.167969 165.050781 C 208.261719 164.910156 208.324219 164.746094 208.339844 164.574219 C 208.566406 162.382812 208.378906 160.214844 207.785156 158.132812 Z M 145.84375 155.429688 C 147.078125 156.742188 146.453125 158.855469 146.316406 159.265625 C 145.886719 160.554688 144.914062 161.367188 144.0625 161.851562 C 144.535156 159.566406 144.710938 157.132812 144.5625 154.652344 C 144.988281 154.785156 145.457031 155.019531 145.84375 155.429688 Z M 118.816406 154.863281 C 117.746094 153.558594 116.320312 151.253906 116.476562 148.402344 C 116.636719 145.503906 118.339844 143.570312 120.386719 141.519531 C 120.394531 141.511719 120.402344 141.503906 120.410156 141.5 C 120.523438 141.386719 120.640625 141.269531 120.753906 141.15625 C 123.144531 138.777344 129.390625 133.441406 135.703125 135.367188 C 137.40625 135.886719 138.96875 136.878906 140.347656 138.316406 C 140.441406 138.414062 140.550781 138.492188 140.675781 138.546875 C 140.859375 138.625 142.519531 139.386719 143.847656 141.082031 C 144.640625 142.089844 145.152344 143.234375 145.367188 144.480469 C 145.867188 147.363281 144.574219 149.640625 143.609375 150.878906 L 141.886719 148.433594 L 140.972656 144.917969 C 140.90625 144.652344 140.734375 144.429688 140.5 144.289062 C 138.136719 142.902344 135.464844 142.472656 133.171875 143.113281 C 131.597656 143.554688 130.375 144.453125 129.734375 145.644531 C 128.730469 147.503906 129.363281 149.652344 129.867188 150.832031 C 128.902344 151.832031 127.417969 152.980469 125.339844 153.582031 C 123.996094 153.972656 122.59375 154.078125 121.175781 153.890625 C 121.171875 153.890625 121.171875 153.890625 121.167969 153.890625 L 121.164062 153.890625 C 121.164062 153.890625 121.15625 153.890625 121.152344 153.890625 C 121.125 153.886719 121.09375 153.882812 121.066406 153.882812 C 121.050781 153.882812 121.035156 153.882812 121.023438 153.882812 C 121.003906 153.882812 120.984375 153.882812 120.964844 153.882812 C 120.941406 153.886719 120.917969 153.890625 120.894531 153.890625 C 120.886719 153.894531 120.875 153.894531 120.867188 153.894531 C 120.839844 153.898438 120.816406 153.90625 120.789062 153.910156 C 120.78125 153.914062 120.773438 153.914062 120.765625 153.917969 C 120.761719 153.917969 120.753906 153.921875 120.746094 153.921875 C 120.1875 154.070312 119.476562 154.351562 118.816406 154.863281 Z M 119.488281 160.84375 C 119.3125 160.449219 118.484375 158.40625 119.582031 156.980469 C 119.746094 156.769531 119.929688 156.59375 120.125 156.449219 C 120.367188 158.746094 120.875 160.964844 121.617188 163.015625 C 120.816406 162.59375 119.96875 161.917969 119.488281 160.84375 Z M 124.382812 164.335938 C 124.363281 164.285156 124.335938 164.234375 124.308594 164.1875 C 123.179688 161.746094 122.429688 158.960938 122.144531 156.03125 C 122.273438 156.035156 122.402344 156.039062 122.53125 156.039062 C 123.679688 156.039062 124.808594 155.878906 125.914062 155.558594 C 126.867188 155.28125 127.714844 154.90625 128.464844 154.488281 C 128.015625 154.804688 127.726562 155.363281 127.742188 155.992188 C 127.765625 156.957031 128.503906 157.71875 129.386719 157.695312 C 130.273438 157.671875 130.972656 156.875 130.945312 155.910156 C 130.921875 154.945312 130.183594 154.179688 129.300781 154.203125 C 129.097656 154.207031 128.90625 154.253906 128.730469 154.335938 C 130.132812 153.5 131.167969 152.503906 131.871094 151.679688 C 132.148438 151.359375 132.195312 150.902344 131.996094 150.527344 C 131.867188 150.28125 130.742188 148.097656 131.539062 146.621094 C 131.910156 145.9375 132.707031 145.378906 133.722656 145.09375 C 135.371094 144.632812 137.308594 144.914062 139.097656 145.859375 L 139.949219 149.132812 C 139.980469 149.25 140.035156 149.363281 140.105469 149.464844 L 142.285156 152.566406 C 142.296875 152.59375 142.308594 152.617188 142.320312 152.640625 L 142.320312 152.660156 C 142.320312 152.675781 142.320312 152.695312 142.320312 152.710938 C 142.320312 152.722656 142.320312 152.738281 142.320312 152.746094 C 142.324219 152.769531 142.324219 152.792969 142.328125 152.816406 L 142.328125 152.820312 C 143.167969 159.144531 141.75 165.3125 138.535156 169.328125 C 137.050781 171.179688 135.332031 172.316406 133.816406 172.445312 C 132.328125 172.574219 130.46875 171.773438 128.710938 170.246094 C 126.964844 168.722656 125.496094 166.691406 124.382812 164.335938 Z M 136.609375 173.675781 C 136.449219 174.25 136.167969 174.789062 135.773438 175.246094 C 135.152344 175.976562 134.335938 176.410156 133.582031 176.410156 L 133.574219 176.410156 C 132.875 176.40625 132.097656 176.015625 131.496094 175.359375 C 131.105469 174.9375 130.8125 174.433594 130.628906 173.890625 C 131.605469 174.300781 132.574219 174.515625 133.496094 174.515625 C 133.664062 174.515625 133.828125 174.511719 133.992188 174.496094 C 134.859375 174.421875 135.742188 174.140625 136.609375 173.675781 Z M 65.199219 168.46875 C 63.519531 167.285156 62.0625 165.816406 60.859375 164.105469 C 60.699219 162.265625 60.871094 160.445312 61.371094 158.699219 C 61.882812 156.910156 62.652344 154.210938 63.710938 153.945312 C 64.679688 153.703125 66.3125 155.820312 67.625 157.519531 C 69.484375 159.929688 71.574219 162.640625 74.144531 162.640625 C 74.316406 162.640625 74.488281 162.625 74.667969 162.601562 C 76.78125 162.300781 77.988281 160.273438 78.871094 158.796875 C 79.140625 158.347656 79.519531 157.710938 79.777344 157.433594 C 80.089844 157.890625 80.859375 159.738281 81.097656 166.890625 L 75.851562 171.78125 C 73.027344 171.769531 69.007812 171.15625 65.199219 168.46875 Z M 194.902344 177.921875 C 188.789062 186.046875 182.394531 193.996094 175.878906 201.558594 C 170.390625 207.933594 166.410156 212.09375 161.390625 211.863281 C 158.828125 211.746094 156.285156 210.507812 153.835938 208.183594 C 153.425781 207.792969 152.777344 207.808594 152.382812 208.222656 C 151.996094 208.632812 152.011719 209.285156 152.421875 209.671875 C 155.242188 212.347656 158.226562 213.777344 161.296875 213.917969 C 161.464844 213.925781 161.636719 213.929688 161.800781 213.929688 C 161.996094 213.929688 162.1875 213.921875 162.378906 213.914062 C 163.015625 216.191406 163.542969 218.519531 163.953125 220.84375 C 164.464844 223.726562 164.800781 226.664062 164.957031 229.59375 L 108.578125 229.59375 C 108.867188 226.328125 109.273438 223.042969 109.792969 219.8125 C 110.367188 216.21875 111.097656 212.605469 111.957031 209.070312 C 112.074219 208.582031 111.828125 208.082031 111.367188 207.882812 C 110.910156 207.683594 110.375 207.84375 110.101562 208.265625 C 108.769531 210.308594 107.261719 211.527344 105.617188 211.886719 C 101.402344 212.808594 96.640625 207.753906 91.300781 201.558594 C 84.789062 193.996094 78.390625 186.046875 72.28125 177.921875 L 87.132812 164.066406 L 105.699219 184.003906 C 104.6875 184.925781 103.707031 185.886719 102.761719 186.878906 C 102.371094 187.292969 102.386719 187.941406 102.796875 188.335938 C 102.996094 188.523438 103.25 188.617188 103.503906 188.617188 C 103.777344 188.617188 104.046875 188.511719 104.25 188.296875 C 107.984375 184.367188 112.261719 181.011719 116.953125 178.332031 C 120.570312 176.265625 124.417969 174.613281 128.414062 173.40625 C 128.59375 174.65625 129.136719 175.828125 129.984375 176.753906 C 130.984375 177.835938 132.289062 178.460938 133.566406 178.464844 C 133.574219 178.464844 133.578125 178.46875 133.585938 178.46875 C 134.945312 178.464844 136.3125 177.78125 137.332031 176.585938 C 138.109375 175.679688 138.59375 174.574219 138.757812 173.402344 C 142.753906 174.609375 146.609375 176.265625 150.230469 178.332031 C 154.921875 181.011719 159.195312 184.367188 162.933594 188.296875 C 163.136719 188.511719 163.40625 188.617188 163.679688 188.617188 C 163.929688 188.617188 164.1875 188.523438 164.386719 188.335938 C 164.796875 187.941406 164.8125 187.292969 164.421875 186.878906 C 163.476562 185.886719 162.496094 184.925781 161.484375 184.003906 L 180.050781 164.066406 Z M 206.324219 164.105469 C 205.121094 165.816406 203.664062 167.285156 201.984375 168.46875 C 198.175781 171.15625 194.15625 171.769531 191.332031 171.78125 L 186.085938 166.890625 C 186.320312 159.738281 187.09375 157.890625 187.40625 157.433594 C 187.664062 157.710938 188.042969 158.347656 188.3125 158.796875 C 189.195312 160.273438 190.402344 162.300781 192.515625 162.601562 C 192.691406 162.625 192.867188 162.640625 193.039062 162.640625 C 195.609375 162.640625 197.699219 159.929688 199.558594 157.519531 C 200.871094 155.820312 202.503906 153.703125 203.472656 153.945312 C 204.53125 154.210938 205.300781 156.910156 205.8125 158.699219 C 206.3125 160.445312 206.480469 162.265625 206.324219 164.105469 Z M 136.90625 157.503906 C 137.789062 157.480469 138.488281 156.679688 138.460938 155.714844 C 138.4375 154.75 137.699219 153.988281 136.816406 154.007812 C 135.929688 154.03125 135.234375 154.832031 135.257812 155.796875 C 135.28125 156.761719 136.019531 157.527344 136.90625 157.503906 Z M 132.277344 164.023438 C 132.382812 164.023438 132.488281 164.007812 132.59375 163.972656 L 136.136719 162.835938 C 136.550781 162.703125 136.835938 162.320312 136.847656 161.882812 C 136.859375 161.449219 136.59375 161.050781 136.1875 160.894531 C 135.9375 160.800781 135.308594 160.492188 134.90625 159.695312 C 134.597656 159.074219 134.574219 158.449219 134.589844 158.128906 C 134.613281 157.5625 134.175781 157.082031 133.609375 157.054688 C 133.046875 157.03125 132.5625 157.46875 132.539062 158.039062 C 132.511719 158.667969 132.578125 159.628906 133.074219 160.617188 C 133.242188 160.949219 133.429688 161.234375 133.632812 161.480469 L 131.964844 162.015625 C 131.425781 162.191406 131.128906 162.769531 131.300781 163.308594 C 131.441406 163.746094 131.84375 164.023438 132.277344 164.023438 Z M 136.1875 160.894531 C 135.9375 160.800781 135.308594 160.492188 134.90625 159.695312 C 134.597656 159.074219 134.574219 158.449219 134.585938 158.128906 C 134.613281 157.5625 134.175781 157.082031 133.609375 157.054688 C 133.046875 157.03125 132.5625 157.46875 132.539062 158.039062 C 132.511719 158.667969 132.578125 159.628906 133.074219 160.617188 C 133.242188 160.949219 133.429688 161.234375 133.632812 161.480469 L 131.964844 162.015625 C 131.425781 162.191406 131.128906 162.769531 131.300781 163.308594 C 131.441406 163.746094 131.84375 164.023438 132.277344 164.023438 C 132.382812 164.023438 132.488281 164.007812 132.59375 163.972656 L 136.136719 162.835938 C 136.550781 162.703125 136.835938 162.320312 136.847656 161.882812 C 136.859375 161.449219 136.59375 161.050781 136.1875 160.894531 Z M 136.816406 154.007812 C 135.929688 154.03125 135.234375 154.832031 135.257812 155.796875 C 135.28125 156.761719 136.019531 157.527344 136.90625 157.503906 C 137.789062 157.480469 138.488281 156.679688 138.460938 155.714844 C 138.4375 154.75 137.699219 153.988281 136.816406 154.007812 Z M 136.816406 154.007812 C 135.929688 154.03125 135.234375 154.832031 135.257812 155.796875 C 135.28125 156.761719 136.019531 157.527344 136.90625 157.503906 C 137.789062 157.480469 138.488281 156.679688 138.460938 155.714844 C 138.4375 154.75 137.699219 153.988281 136.816406 154.007812 Z M 136.1875 160.894531 C 135.9375 160.800781 135.308594 160.492188 134.90625 159.695312 C 134.597656 159.074219 134.574219 158.449219 134.585938 158.128906 C 134.613281 157.5625 134.175781 157.082031 133.609375 157.054688 C 133.046875 157.03125 132.5625 157.46875 132.539062 158.039062 C 132.511719 158.667969 132.578125 159.628906 133.074219 160.617188 C 133.242188 160.949219 133.429688 161.234375 133.632812 161.480469 L 131.964844 162.015625 C 131.425781 162.191406 131.128906 162.769531 131.300781 163.308594 C 131.441406 163.746094 131.84375 164.023438 132.277344 164.023438 C 132.382812 164.023438 132.488281 164.007812 132.59375 163.972656 L 136.136719 162.835938 C 136.550781 162.703125 136.835938 162.320312 136.847656 161.882812 C 136.859375 161.449219 136.59375 161.050781 136.1875 160.894531 Z M 136.1875 160.894531 C 135.9375 160.800781 135.308594 160.492188 134.90625 159.695312 C 134.597656 159.074219 134.574219 158.449219 134.585938 158.128906 C 134.613281 157.5625 134.175781 157.082031 133.609375 157.054688 C 133.046875 157.03125 132.5625 157.46875 132.539062 158.039062 C 132.511719 158.667969 132.578125 159.628906 133.074219 160.617188 C 133.242188 160.949219 133.429688 161.234375 133.632812 161.480469 L 131.964844 162.015625 C 131.425781 162.191406 131.128906 162.769531 131.300781 163.308594 C 131.441406 163.746094 131.84375 164.023438 132.277344 164.023438 C 132.382812 164.023438 132.488281 164.007812 132.59375 163.972656 L 136.136719 162.835938 C 136.550781 162.703125 136.835938 162.320312 136.847656 161.882812 C 136.859375 161.449219 136.59375 161.050781 136.1875 160.894531 Z M 136.816406 154.007812 C 135.929688 154.03125 135.234375 154.832031 135.257812 155.796875 C 135.28125 156.761719 136.019531 157.527344 136.90625 157.503906 C 137.789062 157.480469 138.488281 156.679688 138.460938 155.714844 C 138.4375 154.75 137.699219 153.988281 136.816406 154.007812 Z M 136.816406 154.007812 C 135.929688 154.03125 135.234375 154.832031 135.257812 155.796875 C 135.28125 156.761719 136.019531 157.527344 136.90625 157.503906 C 137.789062 157.480469 138.488281 156.679688 138.460938 155.714844 C 138.4375 154.75 137.699219 153.988281 136.816406 154.007812 Z M 136.1875 160.894531 C 135.9375 160.800781 135.308594 160.492188 134.90625 159.695312 C 134.597656 159.074219 134.574219 158.449219 134.585938 158.128906 C 134.613281 157.5625 134.175781 157.082031 133.609375 157.054688 C 133.046875 157.03125 132.5625 157.46875 132.539062 158.039062 C 132.511719 158.667969 132.578125 159.628906 133.074219 160.617188 C 133.242188 160.949219 133.429688 161.234375 133.632812 161.480469 L 131.964844 162.015625 C 131.425781 162.191406 131.128906 162.769531 131.300781 163.308594 C 131.441406 163.746094 131.84375 164.023438 132.277344 164.023438 C 132.382812 164.023438 132.488281 164.007812 132.59375 163.972656 L 136.136719 162.835938 C 136.550781 162.703125 136.835938 162.320312 136.847656 161.882812 C 136.859375 161.449219 136.59375 161.050781 136.1875 160.894531 Z M 136.1875 160.894531 C 135.9375 160.800781 135.308594 160.492188 134.90625 159.695312 C 134.597656 159.074219 134.574219 158.449219 134.585938 158.128906 C 134.613281 157.5625 134.175781 157.082031 133.609375 157.054688 C 133.046875 157.03125 132.5625 157.46875 132.539062 158.039062 C 132.511719 158.667969 132.578125 159.628906 133.074219 160.617188 C 133.242188 160.949219 133.429688 161.234375 133.632812 161.480469 L 131.964844 162.015625 C 131.425781 162.191406 131.128906 162.769531 131.300781 163.308594 C 131.441406 163.746094 131.84375 164.023438 132.277344 164.023438 C 132.382812 164.023438 132.488281 164.007812 132.59375 163.972656 L 136.136719 162.835938 C 136.550781 162.703125 136.835938 162.320312 136.847656 161.882812 C 136.859375 161.449219 136.59375 161.050781 136.1875 160.894531 Z M 136.816406 154.007812 C 135.929688 154.03125 135.234375 154.832031 135.257812 155.796875 C 135.28125 156.761719 136.019531 157.527344 136.90625 157.503906 C 137.789062 157.480469 138.488281 156.679688 138.460938 155.714844 C 138.4375 154.75 137.699219 153.988281 136.816406 154.007812 Z M 136.816406 154.007812 C 135.929688 154.03125 135.234375 154.832031 135.257812 155.796875 C 135.28125 156.761719 136.019531 157.527344 136.90625 157.503906 C 137.789062 157.480469 138.488281 156.679688 138.460938 155.714844 C 138.4375 154.75 137.699219 153.988281 136.816406 154.007812 Z M 136.1875 160.894531 C 135.9375 160.800781 135.308594 160.492188 134.90625 159.695312 C 134.597656 159.074219 134.574219 158.449219 134.585938 158.128906 C 134.613281 157.5625 134.175781 157.082031 133.609375 157.054688 C 133.046875 157.03125 132.5625 157.46875 132.539062 158.039062 C 132.511719 158.667969 132.578125 159.628906 133.074219 160.617188 C 133.242188 160.949219 133.429688 161.234375 133.632812 161.480469 L 131.964844 162.015625 C 131.425781 162.191406 131.128906 162.769531 131.300781 163.308594 C 131.441406 163.746094 131.84375 164.023438 132.277344 164.023438 C 132.382812 164.023438 132.488281 164.007812 132.59375 163.972656 L 136.136719 162.835938 C 136.550781 162.703125 136.835938 162.320312 136.847656 161.882812 C 136.859375 161.449219 136.59375 161.050781 136.1875 160.894531 Z M 136.1875 160.894531 C 135.9375 160.800781 135.308594 160.492188 134.90625 159.695312 C 134.597656 159.074219 134.574219 158.449219 134.585938 158.128906 C 134.613281 157.5625 134.175781 157.082031 133.609375 157.054688 C 133.046875 157.03125 132.5625 157.46875 132.539062 158.039062 C 132.511719 158.667969 132.578125 159.628906 133.074219 160.617188 C 133.242188 160.949219 133.429688 161.234375 133.632812 161.480469 L 131.964844 162.015625 C 131.425781 162.191406 131.128906 162.769531 131.300781 163.308594 C 131.441406 163.746094 131.84375 164.023438 132.277344 164.023438 C 132.382812 164.023438 132.488281 164.007812 132.59375 163.972656 L 136.136719 162.835938 C 136.550781 162.703125 136.835938 162.320312 136.847656 161.882812 C 136.859375 161.449219 136.59375 161.050781 136.1875 160.894531 Z M 136.816406 154.007812 C 135.929688 154.03125 135.234375 154.832031 135.257812 155.796875 C 135.28125 156.761719 136.019531 157.527344 136.90625 157.503906 C 137.789062 157.480469 138.488281 156.679688 138.460938 155.714844 C 138.4375 154.75 137.699219 153.988281 136.816406 154.007812 Z M 136.816406 154.007812 " fill-opacity="1" fill-rule="nonzero"/></g><g clip-path="url(#539365bc07)"><g clip-path="url(#9b11e8e80c)"><g clip-path="url(#b8c3b2b501)"><g clip-path="url(#9fcf95e0ee)"><path fill="#000000" d="M 221.296875 63.777344 L 217.972656 69.507812 C 213.597656 67.808594 208.816406 65.8125 203.582031 59.542969 C 198.34375 53.265625 197.238281 48.207031 196.351562 43.589844 L 202.585938 41.351562 C 203.5 45.183594 205.035156 49.644531 209.308594 54.765625 C 213.574219 59.878906 217.691406 62.191406 221.296875 63.777344 Z M 229.894531 48.953125 L 225.667969 56.242188 C 222.722656 54.875 219.75 52.988281 216.339844 48.898438 C 212.921875 44.800781 211.597656 41.546875 210.785156 38.402344 L 218.710938 35.546875 C 219.609375 37.921875 220.953125 40.464844 223.207031 43.167969 C 225.460938 45.871094 227.71875 47.648438 229.894531 48.953125 Z M 237.238281 36.308594 L 234.367188 41.257812 C 233.035156 40.269531 231.675781 39.015625 230.242188 37.300781 C 228.808594 35.578125 227.816406 34.019531 227.082031 32.539062 L 232.46875 30.601562 C 233.058594 31.601562 233.742188 32.617188 234.609375 33.65625 C 235.476562 34.691406 236.355469 35.550781 237.238281 36.308594 Z M 244.902344 25.066406 C 243.996094 23.976562 242.074219 23.511719 240.464844 24.160156 L 199.171875 39.015625 L 189.191406 35.097656 C 187.933594 34.605469 186.894531 34.667969 186.246094 35.210938 L 185.460938 35.867188 C 184.808594 36.40625 184.566406 37.417969 184.828125 38.742188 L 190.03125 65.175781 C 190.300781 66.53125 191.03125 67.929688 192.054688 69.160156 C 193.082031 70.386719 194.328125 71.359375 195.613281 71.867188 L 220.691406 81.726562 C 221.941406 82.214844 222.980469 82.160156 223.628906 81.617188 L 224.417969 80.960938 C 225.066406 80.417969 225.316406 79.410156 225.054688 78.082031 L 222.988281 67.5625 L 245 29.597656 C 245.929688 28.132812 245.816406 26.152344 244.902344 25.066406 Z M 244.902344 25.066406 " fill-opacity="1" fill-rule="evenodd"/></g></g></g></g></svg>